# xmcd
#
# Track frame offsets:
#	150
#	13595
#	25953
#	43007
#	56425
#	69118
#	81852
#	95284
#	108102
#	119165
#	136721
#	157090
#	168014
#	181863
#	193093
#	206942
#	217378
#	227160
#	242568
#	261419
#	274933
#	291846
#	304998
#	317356
#	332988
#
# Disc length: 4692 seconds
#
# Revision: 1
# Processed by: cddbd v1.5.1PL0 Copyright (c) Steve Scherf et al.
# Submitted via: EasyCDDAExtractor 6.2.0.3
#
DISCID=70125219
DTITLE=Sertanejo De Ouro - Só Modão
DYEAR=1900
DGENRE=
TTITLE0=Redator and Jornalista - Férias Na Índia
TTITLE1=Abel and Caim - Rio De Lágrimas
TTITLE2=Cássia Moreno - A Mais Bonita Das Noites
TTITLE3=Mensageiro and Mexicano - Ébrio De Amor
TTITLE4=Dartanhã and Delamônica - Os Verdes Campos Da Minha Terra
TTITLE5=Cezar and Paulinho - Soca Pilão
TTITLE6=Itamaracá and José Nilton - Vento No Amanhecer
TTITLE7=Eli Silva and Goiano - Estranho No Ninho
TTITLE8=Cyntia Levy - Mata-Me Depressa
TTITLE9=Tonico and Tinoco - Tristeza Do Jeca
TTITLE10=Onivaldo and Edinaldo  - O Mais Importante É O Verdadeiro Amor
TTITLE11=Barrerito - Andorinha Mensageira
TTITLE12=Odair and Trajano - Aline
TTITLE13=Irídio and Irineu - Meu Coração Não Agüenta
TTITLE14=Joanito and Richard - Se Deus Me Ouvisse
TTITLE15=Almir Sater - Chalana
TTITLE16=Menim and Gaspar - Amante De Rodeio
TTITLE17=Sérgio Reis - O Menino Da Porteira
TTITLE18=Markos Belmonte - Sonhei Com Você
TTITLE19=Canhotinho - Luar Do Sertão
TTITLE20=Inezita Barroso and Boberto Luna - Romaria
TTITLE21=Gilberto and Gilmar - Cabocla Tereza
TTITLE22=As Mineirinhas - A Rival
TTITLE23=João Mineiro and Marciano - Viola Está Chorando
TTITLE24=Milionário and José Rico - Levando A Vida
EXTD=
EXTT0=
EXTT1=
EXTT2=
EXTT3=
EXTT4=
EXTT5=
EXTT6=
EXTT7=
EXTT8=
EXTT9=
EXTT10=
EXTT11=
EXTT12=
EXTT13=
EXTT14=
EXTT15=
EXTT16=
EXTT17=
EXTT18=
EXTT19=
EXTT20=
EXTT21=
EXTT22=
EXTT23=
EXTT24=
PLAYORDER=
